# xmcd
#
# Track frame offsets: 
#        150
#        10501
#        26678
#        37402
#        55884
#        69934
#        85633
#        97386
#        112195
#        136707
#        153236
#        166636
#        178417
#        197182
#        207128
#        221617
#        233295
#        252134
#        267482
#        281297
#        304191
#        324783
#
# Disc length: 4493 seconds
#
# Revision: 0
# Processed by: cddbd v1.5.2PL0 Copyright (c) Steve Scherf et al.
# Submitted via: ExactAudioCopy v1.2
#
DISCID=2b118b16
DTITLE=Marty Stuart - The Definitive Collection Vol. 2 [CD3]
DYEAR=2019
DGENRE=Country
TTITLE0=Air Mail Special
TTITLE1=Lester Flatt - Rawhide
TTITLE2=Sad House, Big Party
TTITLE3=The Lonely Kind
TTITLE4=The Coal Mine Blues
TTITLE5=One More Ride [with Johnny Cash]
TTITLE6=Lost On The Desert
TTITLE7=Marty Stuart Visits The Moon
TTITLE8=The Observations Of A Crow
TTITLE9=Hobo's Prayer
TTITLE10=Parchman Farm
TTITLE11=Half A Heart
TTITLE12=Casino
TTITLE13=99 And A Half Won't Do
TTITLE14=Uncloudy Day [with Mavis Staples]
TTITLE15=Graveyard
TTITLE16=Porter Wagoner's Grave [feat. Ralph Mooney]
TTITLE17=Rattle and Roll
TTITLE18=There's A Rainbow (At The End Of Every Storm)
TTITLE19=Cathedral [feat. Pastor Evelyn Hubbard and Brother Kenneth]
TTITLE20=Walls Of A Prison
TTITLE21=Heaven
EXTD=
EXTT0=
EXTT1=
EXTT2=
EXTT3=
EXTT4=
EXTT5=
EXTT6=
EXTT7=
EXTT8=
EXTT9=
EXTT10=
EXTT11=
EXTT12=
EXTT13=
EXTT14=
EXTT15=
EXTT16=
EXTT17=
EXTT18=
EXTT19=
EXTT20=
EXTT21=
PLAYORDER=
